<svg xmlns="http://www.w3.org/2000/svg" viewBox="0 0 348.64 120.27"><defs><style>.cls-1{fill:#32363e;}</style></defs><g id="图层_2" data-name="图层 2"><g id="图层_1-2" data-name="图层 1"><path class="cls-1" d="M346.64,45H268.38l0-.12a15.27,15.27,0,0,1,14.82-11.22h59.11a59.64,59.64,0,0,0-106.67,0A58.37,58.37,0,0,0,231.38,45,59.89,59.89,0,0,0,231,74.34h79l0,.11A14.82,14.82,0,0,1,295.5,85.67H235a59.65,59.65,0,0,0,108,0,58.49,58.49,0,0,0,4-11.33A59.89,59.89,0,0,0,346.64,45Z"/><polygon class="cls-1" points="218.2 0.08 119.6 0.08 119.6 39.76 149.06 39.76 149.06 120.26 188.74 120.26 188.74 39.76 218.2 39.76 218.2 0.08"/><path class="cls-1" d="M57.64,80h1.69A39.28,39.28,0,0,0,98.61,40.72V39.28A39.28,39.28,0,0,0,59.33,0H0V79H0v41.27H108.61ZM46.16,29.33h5.63a10.67,10.67,0,0,1,0,21.34H46.16Z"/></g></g></svg>